<svg xmlns="http://www.w3.org/2000/svg" width="1207" height="255" viewBox="0 0 1207 255">
  <defs>
    <linearGradient id="group-a" x1="21.957%" x2="82.718%" y1="0%" y2="91.653%">
      <stop offset="0%" stop-color="#FFC720"/>
      <stop offset="100%" stop-color="#ED9206"/>
    </linearGradient>
  </defs>
  <g fill="none" fill-rule="evenodd">
    <path fill="url(#group-a)" fill-rule="nonzero" d="M125.000081,3.07990174 L215.500081,55.330589 C222.61626,59.4391554 227,67.0320514 227,75.2491268 L227,179.750873 C227,187.967949 222.61626,195.560845 215.500081,199.669411 L125.000081,251.920098 C117.883815,256.028715 109.116185,256.028715 101.999919,251.920098 L11.4999195,199.669411 C4.38374008,195.560845 1.7408297e-13,187.967949 1.63424829e-13,179.750873 L9.23705556e-14,75.2491268 C8.8817842e-14,67.0320514 4.38374008,59.4391554 11.4999195,55.330589 L101.999919,3.07990174 C109.116185,-1.02871454 117.883815,-1.02871454 125.000081,3.07990174 Z"/>
    <g fill="#FFF" transform="translate(271 30)">
      <path d="M199.431068 184C178.285331 184 161.760577 178.172046 149.856311 166.515962 137.952044 154.859878 132 138.35386 132 116.997412 132 95.0151331 137.501725 78.0201923 148.50534 66.0120794 159.508955 54.0039664 174.721909 48 194.14466 48 212.705918 48 227.155288 53.2803613 237.493204 63.8412425 247.83112 74.4021236 253 88.9915664 253 107.610009L253 124.976704 168.3 124.976704C168.691588 135.146441 171.706768 143.08654 177.345631 148.797239 182.984494 154.507938 190.894447 157.363244 201.075728 157.363244 208.9858 157.363244 216.465013 156.541855 223.513592 154.899051 230.562171 153.256247 237.92391 150.635623 245.599029 147.037101L245.599029 174.72994C239.333626 177.85909 232.637576 180.18636 225.51068 181.711821 218.383783 183.237281 209.690666 184 199.431068 184zM194.379612 73.4633305C186.78281 73.4633305 180.830766 75.8688284 176.523301 80.6798965 172.215836 85.4909645 169.74887 92.3163205 169.12233 101.156169L219.401942 101.156169C219.245307 92.3163205 216.934974 85.4909645 212.470874 80.6798965 208.006774 75.8688284 201.976413 73.4633305 194.379612 73.4633305zM329.484536 155.567046C335.738863 155.567046 343.243942 154.201966 352 151.471765L352 178.03259C343.087584 182.010883 332.142677 184 319.164948 184 304.858176 184 294.440969 180.392288 287.913015 173.176756 281.385062 165.961224 278.121134 155.138089 278.121134 140.707025L278.121134 84.6289721 261 84.6289721 261 57.8341309 280.701031 57.6001149 280.701031 30.9846861 313.887887 21 313.887887 57.8341309 350.592784 57.8341309 350.592784 84.6289721 313.887887 84.6289721 313.887887 140.707025C313.887887 145.777399 315.314633 149.521619 318.16817 151.939797 321.021707 154.357975 324.793791 155.567046 329.484536 155.567046zM539.742188 184L504 184 504 70.9947615 539.742188 61.9955886 539.742188 184zM521 51.9965077C509.954305 51.9965077 501 43.4906997 501 32.9982538 501 22.505808 509.954305 14 521 14 532.045695 14 541 22.505808 541 32.9982538 541 43.4906997 532.045695 51.9965077 521 51.9965077zM448.141424 181.657192L448.141424 166.887382C442.815188 172.552976 436.197446 176.573328 429.541123 179.607235 422.884801 182.641142 414.852609 184 404.603811 184 392.007961 184 382.091812 180.40773 374.855065 173.223084 367.618319 166.038437 364 155.808278 364 142.5323 364 128.63157 368.870062 118.381888 378.610331 111.782946 388.3506 105.184004 403.039019 101.533165 422.676028 100.830319L445.442327 100.127476 445.442327 94.3875969C445.442327 81.1116189 438.635976 74.4737295 425.023069 74.4737295 414.539566 74.4737295 402.217724 77.6364886 388.057172 83.9621016L376.204614 59.83118C391.303987 51.9436872 408.046046 48 426.431294 48 444.03419 48 457.529542 51.826548 466.917753 59.4797588 476.305965 67.1329696 481 78.7687993 481 94.3875969L481 181.657192 448.141424 181.657192zM445.442327 120.978467L431.594784 121.447028C421.189517 121.759404 413.444358 123.633632 408.359077 127.069767 403.273796 130.505903 400.731194 135.738122 400.731194 142.766581 400.731194 152.840705 406.520504 157.877692 418.099298 157.877692 426.392218 157.877692 433.022543 155.495861 437.990471 150.732127 442.9584 145.968394 445.442327 139.642876 445.442327 131.755383L445.442327 120.978467zM739.764001 184L726.308563 143.226158 663.691437 143.226158 650.235999 184 612 184 672.619958 12 717.145081 12 778 184 739.764001 184zM717.615004 112.762943L695.05874 49.5947321 672.854919 112.762943 717.615004 112.762943z"/>
      <polygon points="786 183 786 12 822 12 822 183"/>
      <path d="M891,12 C903.371968,12 914.045822,16.3665768 922.90027,25.0997305 C931.633423,33.8328841 936,44.5067385 936,57 C936,69.3719677 931.633423,80.0458221 922.90027,88.9002695 C914.045822,97.6334232 903.371968,102 891,102 C878.506739,102 867.832884,97.6334232 859.09973,88.9002695 C850.366577,80.0458221 846,69.3719677 846,57 C846,44.5067385 850.366577,33.8328841 859.09973,25.0997305 C867.832884,16.3665768 878.506739,12 891,12 Z M891,17.7008086 C880.083558,17.7008086 870.865229,21.4609164 863.22372,29.2237197 C855.460916,36.8652291 851.700809,46.083558 851.700809,57 C851.700809,67.7951482 855.460916,77.0134771 863.22372,84.7762803 C870.865229,92.4177898 880.083558,96.2991914 891,96.2991914 C901.795148,96.2991914 911.013477,92.4177898 918.77628,84.7762803 C926.41779,77.0134771 930.299191,67.7951482 930.299191,57 C930.299191,46.083558 926.41779,36.8652291 918.77628,29.2237197 C911.013477,21.4609164 901.795148,17.7008086 891,17.7008086 Z M870.137466,30.1940701 L892.940701,30.1940701 C898.520216,30.1940701 902.886792,31.4070081 906.161725,33.9541779 C909.557951,36.6226415 911.256065,40.5040431 911.256065,45.4770889 C911.256065,51.7843666 908.345013,55.9083558 902.644205,58.0916442 C905.555256,58.819407 907.617251,60.638814 908.830189,63.3072776 C909.679245,65.1266846 910.285714,67.7951482 910.528302,71.4339623 C910.892183,77.1347709 912.105121,81.2587601 914.28841,83.8059299 L904.706199,83.8059299 C903.371968,81.5013477 902.522911,77.8625337 902.15903,72.7681941 C901.795148,68.6442049 900.946092,65.8544474 899.490566,64.3989218 C897.913747,62.5795148 895.123989,61.7304582 891.121294,61.7304582 L878.628032,61.7304582 L878.628032,83.8059299 L870.137466,83.8059299 L870.137466,30.1940701 Z M878.628032,37.4716981 L878.628032,54.3315364 L891.97035,54.3315364 C895.366577,54.3315364 898.156334,53.4824798 900.097035,52.0269542 C901.795148,50.4501348 902.765499,48.3881402 902.765499,45.8409704 C902.765499,40.2614555 899.126685,37.4716981 891.849057,37.4716981 L878.628032,37.4716981 Z"/>
      <polygon points="601 184 565 184 565 9.981 601 0"/>
      <path d="M36.3613014,88.9090287 L48.0907534,88.9090287 C59.5856739,88.9090287 68.0698927,86.9986511 73.5436644,83.1778386 C79.017436,79.357026 81.7542808,73.3529821 81.7542808,65.1655267 C81.7542808,57.056047 78.9587894,51.2859269 73.3677226,47.8549932 C67.7766558,44.4240595 59.116497,42.7086183 47.3869863,42.7086183 L36.3613014,42.7086183 L36.3613014,88.9090287 Z M36.3613014,118.383721 L36.3613014,184 L0,184 L0,13 L49.9674658,13 C73.2700937,13 90.5122158,17.2301219 101.694349,25.6904925 C112.876483,34.1508631 118.467466,46.9971779 118.467466,64.2298222 C118.467466,74.288696 115.691523,83.2362809 110.139555,91.0728454 C104.587586,98.9094099 96.7289321,105.049909 86.5633562,109.494528 C112.36828,147.936581 129.180326,172.77149 137,184 L96.6506849,184 L55.7148973,118.383721 L36.3613014,118.383721 Z"/>
    </g>
    <polygon stroke="#FFF" stroke-width="3" points="85.038 83.038 159.662 61.844 138.468 136.468 63.844 157.662" transform="rotate(45 111.753 109.753)"/>
    <circle cx="111" cy="74" r="11" fill="#FFF" fill-rule="nonzero"/>
    <circle cx="111" cy="144" r="11" fill="#FFF" fill-rule="nonzero"/>
    <circle cx="180" cy="110" r="11" fill="#FFF" fill-rule="nonzero"/>
    <circle cx="47" cy="110" r="11" fill="#FFF" fill-rule="nonzero"/>
    <polygon stroke="#FFF" stroke-width="3" points="85.038 118.038 159.662 96.844 138.468 171.468 63.844 192.662" transform="rotate(45 111.753 144.753)"/>
    <circle cx="111" cy="109" r="11" fill="#FFF" fill-rule="nonzero"/>
    <circle cx="111" cy="179" r="11" fill="#FFF" fill-rule="nonzero"/>
    <circle cx="180" cy="145" r="11" fill="#FFF" fill-rule="nonzero"/>
    <circle cx="47" cy="145" r="11" fill="#FFF" fill-rule="nonzero"/>
  </g>
</svg>
