<?xml version="1.0" standalone="no"?><!DOCTYPE svg PUBLIC "-//W3C//DTD SVG 1.1//EN" "http://www.w3.org/Graphics/SVG/1.1/DTD/svg11.dtd"><svg t="1561972022011" class="icon" viewBox="0 0 1024 1024" version="1.1" xmlns="http://www.w3.org/2000/svg" p-id="9509" xmlns:xlink="http://www.w3.org/1999/xlink" width="200" height="200"><defs><style type="text/css"></style></defs><path d="M880.412 665.293c-3.23 1.622-6.898 2.531-10.805 2.531H296.583l24.264 111.838h542.116c13.288 0 23.807 10.52 23.807 23.808 0 13.287-10.52 23.807-23.807 23.807H304.856a23.194 23.194 0 0 1-14.09-2.524c-7.462-3.74-12.601-11.276-12.992-20.186L128.35 115.83H66.807C53.52 115.83 43 105.31 43 92.023c0-13.288 10.52-23.807 23.807-23.807h77.43c11.385-1.608 23.025 5.914 26.104 17.717l48.166 222.015h734.457a23.358 23.358 0 0 1 9.103 0.554c12.734 3.322 20.486 16.056 17.164 28.79l-85.817 312.261c-1.882 7.216-6.787 12.832-13.002 15.74zM852.33 620.21l72.73-264.647H228.838l57.416 264.647" p-id="9510" fill="#FA9D11"></path><path d="M309.308 955.171c-38.756 0-70.868-31.558-70.868-70.868 0-38.756 31.559-70.868 70.868-70.868 38.756 0 70.868 31.559 70.868 70.868-0.554 39.31-32.112 70.868-70.868 70.868z m0-113.5c-23.807 0-42.631 19.379-42.631 42.632 0 23.254 19.378 42.632 42.631 42.632 23.807 0 42.631-19.378 42.631-42.632 0-23.253-19.377-42.631-42.63-42.631z m527.08 113.5c-38.756 0-70.868-31.558-70.868-70.868 0-38.756 31.558-70.868 70.868-70.868 38.755 0 70.867 31.559 70.867 70.868 0 39.31-32.112 70.868-70.867 70.868z m0-113.5c-23.808 0-42.632 19.379-42.632 42.632 0 23.254 19.378 42.632 42.632 42.632 23.253 0 42.631-19.378 42.631-42.632 0-23.253-18.824-42.631-42.631-42.631z" p-id="9511" fill="#FA9D11"></path></svg>
