<?xml version="1.0" standalone="no"?><!DOCTYPE svg PUBLIC "-//W3C//DTD SVG 1.1//EN" "http://www.w3.org/Graphics/SVG/1.1/DTD/svg11.dtd"><svg t="1568612507020" class="icon" viewBox="0 0 1024 1024" version="1.1" xmlns="http://www.w3.org/2000/svg" p-id="1198" width="16" height="16" xmlns:xlink="http://www.w3.org/1999/xlink"><defs><style type="text/css"></style></defs><path d="M455.111111 369.777778h-170.666667v56.888889h170.666667v-56.888889z m0-113.777778h-170.666667v56.888889h170.666667V256z m-170.666667 284.444444h455.111112v-56.888888H284.444444v56.888888zM654.222222 56.888889H199.111111a85.333333 85.333333 0 0 0-85.333333 85.333333v739.555556a85.333333 85.333333 0 0 0 85.333333 85.333333h625.777778a85.333333 85.333333 0 0 0 85.333333-85.333333V312.888889z m0 85.333333l170.666667 170.666667h-113.777778a56.888889 56.888889 0 0 1-56.888889-56.888889V142.222222z m199.111111 711.111111a56.888889 56.888889 0 0 1-56.888889 56.888889H227.555556a56.888889 56.888889 0 0 1-56.888889-56.888889V170.666667a56.888889 56.888889 0 0 1 56.888889-56.888889h369.777777v170.666666a85.333333 85.333333 0 0 0 85.333334 85.333334h170.666666v483.555555z m-568.888889-199.111111h455.111112v-56.888889H284.444444v56.888889z m0 113.777778h455.111112v-56.888889H284.444444v56.888889z" fill="#364C58" p-id="1199"></path></svg>